Genre:Horror | Thriller 
Language:English
IMDb:http://www.imdb.com/title/tt0990363/
Source:Urok.vizhivanija.2010.P.DVDRip.ELEKTRI4KA


General
Complete name :Detention.2010.DvDRip.H264.Feel-Free
Format : MPEG-4
Format profile : Base Media
Codec ID : mp42
File size : 547 MiB
Duration : 1h 21mn
Overall bit rate : 941 Kbps
Video #1
Codec ID : avc1
Codec ID/Info : Advanced Video Coding
Duration : 1h 21mn
Bit rate mode : Variable
Bit rate : 716 Kbps
Width : 720 pixels
Height : 384 pixels
Display aspect ratio : 1.875
Frame rate mode : Constant
Frame rate : 23.976 fps
Resolution : 24 bits
Colorimetry : 4:2:0
Scan type : Progressive
Bits/(Pixel*Frame) : 0.108
Stream size : 416 MiB (76%)
Audio #2
ID : 2
Format : AAC
Format/Info : Advanced Audio Codec
Format version : Version 4
Format profile : LC
Format settings, SBR : No
Codec ID : 40
Duration : 1h 21mn
Bit rate mode : Constant
Bit rate : 221 Kbps
Nominal bit rate : 384 Kbps
Channel(s) : 6 channels
Channel positions : Front: L C R, Rear: L R, LFE
Sampling rate : 48.0 KHz
Resolution : 16 bits
Stream size : 128 MiB (23%)

Plot:
A group of high school students are sent to Detention. Abandoned and locked in, images of Ghosts appear as they attempt to escape, only to find themselves connected to a past horrific death and made responsible for it with their lives.